<?xml version="1.0" encoding="UTF-8"?>
<svg id="Layer_1" data-name="Layer 1" xmlns="http://www.w3.org/2000/svg" viewBox="0 0 45 45">
  <defs>
    <style>
      .cls-1 {
        fill: #fff;
      }

      .cls-2 {
        fill: #457b98;
      }

      .cls-3 {
        fill: #346175;
      }
    </style>
  </defs>
  <g>
    <path class="cls-2" d="m22.5,43.47c-5.17,0-10.16-2.26-14.44-6.54C-.71,28.17-.71,16.83,8.06,8.06c2.58-2.58,5.97-4.88,7.39-5.33,2.39-.74,4.74-1.12,6.97-1.12,5.36,0,10.24,2.17,14.52,6.45,8.77,8.77,8.77,20.11,0,28.88-4.28,4.28-9.27,6.54-14.44,6.54Z"/>
    <path class="cls-3" d="m22.42,3.11c4.94,0,9.47,2.02,13.46,6.01,8.13,8.13,8.13,18.63,0,26.76-3.99,3.99-8.61,6.1-13.38,6.1s-9.39-2.11-13.38-6.1C.99,27.75.99,17.25,9.12,9.12c2.55-2.55,5.67-4.61,6.77-4.96,2.25-.7,4.45-1.05,6.53-1.05m0-3c-2.39,0-4.86.4-7.42,1.19-1.9.6-5.5,3.2-8,5.7-9.3,9.3-9.3,21.7,0,31,4.65,4.65,10.08,6.97,15.5,6.97s10.85-2.32,15.5-6.97c9.3-9.3,9.3-21.7,0-31C33.41,2.41,28.17.11,22.42.11h0Z"/>
  </g>
  <path class="cls-1" d="m26.1,14.5c1.7,3,3.7,5.5,4.4,5.5,1,0,6.5,10.6,6.5,12.6,0,.2-6.5.4-14.5.4h-14.5l1.6-3.8c.9-2,2-4.8,2.5-6.1.7-1.8,1.2-2.1,2.2-1.2,1.1.8,2.1-.5,4.7-5.9,1.9-3.9,3.5-7,3.7-7,.1,0,1.7,2.5,3.4,5.5Z"/>
  <path class="cls-2" d="m21.2,16.5c-.41.82-.77,1.68-1.19,2.49-.07.14-.92,2.36-.68,2.29,1.26-.38,2.57-1.57,3.77-1.2s2.44,1.73,3.52,2.46c.39.26.78.53,1.23.65s.97.09,1.33-.21c-.69-1.36-1.75-2.37-2.55-3.63-.47-.75-.72-1.66-1.14-2.45-1.9-3.6-2.8-3.6-4.3-.4Z"/>
</svg>