<?xml version="1.0" encoding="UTF-8"?>
<svg id="Layer_1" data-name="Layer 1" xmlns="http://www.w3.org/2000/svg" viewBox="0 0 45 45">
  <defs>
    <style>
      .cls-1 {
        fill: #fef5f3;
      }

      .cls-2 {
        fill: #fdebe6;
      }

      .cls-3 {
        fill: #f26b40;
      }

      .cls-4 {
        fill: #a55d49;
      }

      .cls-5 {
        fill: #fdede8;
      }
    </style>
  </defs>
  <g>
    <path class="cls-3" d="m23.45,43.5c-6.42,0-10.72-.77-15.03-4.86C3.16,33.34,1.63,29.36,1.64,20.93c.17-5.83,1.71-9.19,6.35-13.79C12.13,3.47,17.38,1.5,23.09,1.5c2.86,0,5.76.5,8.6,1.48,6.34,3.81,10.14,8.09,11.29,12.73,1.32,5.33,1.85,13.05-3.1,19.55-3.89,4.1-7.6,7.54-13.47,8.2-1.01.02-2,.03-2.96.03Z"/>
    <path class="cls-4" d="m23.09,3h0c2.65,0,5.33.45,7.96,1.35,4.12,2.5,9.18,6.51,10.47,11.72,1.24,5,1.75,12.2-2.79,18.22-4.31,4.53-7.6,7.11-12.42,7.68-.98.02-1.93.03-2.86.03-6.02,0-10.03-.7-13.97-4.42-4.98-5.03-6.35-8.61-6.35-16.61.16-5.43,1.53-8.42,5.84-12.71,3.92-3.45,8.8-5.27,14.11-5.27m0-3c-5.87,0-11.55,1.99-16.16,6.08C2.34,10.64.33,14.29.14,20.93c0,8.29,1.37,12.87,7.25,18.8,4.91,4.65,9.98,5.27,16.06,5.27.99,0,2.01-.02,3.06-.03,6.27-.69,10.29-4.27,14.51-8.73,4.7-6.13,5.19-13.69,3.42-20.89-1.49-6.03-6.81-10.58-12.1-13.74C29.28.54,26.16,0,23.09,0h0Z"/>
  </g>
  <path class="cls-1" d="m11.1,10.51c1.01-.69,3.05-.25,4.05.03,1.03.29,2.64,1.05,3.22,2.01q1.11,1.83,1.7,4.62c1.2,3.73,2.73,5.33,5.56,8.01.81.78,1.62,1.55,2.45,2.35.74.7,1.47,1.41,2.23,2.13.93,1.02,1.85,2.04,2.75,3.09l-1.14,2.86c-5.07-3.05-7.93-7.21-11.42-11.9-2.6-2.81-4.54-3.65-8.11-4.87-1.22-.42-1.96-2.13-2.19-3.29-.27-1.33-.28-3.61.6-4.76.09-.11.19-.21.31-.29Z"/>
  <path class="cls-5" d="m32.24,12.54c-.23.25-.44.51-.64.78-.2.27-.38.55-.65.75s-.64.3-.93.14c.12-1.06.82-1.53,1.53-2.26.68-.69,1.19-1.58,1.24-2.54-1.83-.29-3.43,1.7-4.65,2.91-1.15,1.15-2.86,2.89-3.29,4.5-.38,1.42-.45,2.42-1.6,3.44.11-.1,1.96,1.45,2.12,1.72.55-.36,1.01-.81,1.64-1.05.99-.38,2.09-.44,3.13-.62,1.11-.2,2.33-.92,3.1-1.72.6-.62,1.1-1.34,1.6-2.05.59-.84,1.99-2.23,1.94-3.3-.66-.03-1.23.43-1.73.86-.52.45-1.04.9-1.57,1.35-.15.13-.3.26-.48.33s-.4.07-.56-.05c-.52-.42.55-1.31.74-1.66.17-.31.3-.64.49-.94.31-.49,1.28-1.27,1.01-1.96-.36-.89-2.16,1.03-2.47,1.37Z"/>
  <path class="cls-2" d="m18.24,24.23c.12-.07.24-.14.37-.21.59.72,1.35,1.31,2.21,1.68-.69.87-1.13,1.85-1.88,2.66-.89.96-1.85,1.84-2.87,2.66-.63.5-1.22,1.04-1.86,1.52-.61.47-1.4,1.21-2.08,1.52-1.27.58-1.99-.76-1.91-1.86.1-1.4,1.52-2.75,2.53-3.61.96-.82,1.91-1.62,2.89-2.43.89-.74,1.64-1.36,2.6-1.92Z"/>
</svg>