<?xml version="1.0" encoding="UTF-8"?>
<svg id="Layer_1" data-name="Layer 1" xmlns="http://www.w3.org/2000/svg" viewBox="0 0 45 45">
  <defs>
    <style>
      .cls-1 {
        fill: #127067;
      }

      .cls-2 {
        fill: #f2faf9;
      }

      .cls-3 {
        fill: #18aaa1;
      }

      .cls-4 {
        fill: #e7f6f5;
      }
    </style>
  </defs>
  <g>
    <path class="cls-3" d="m22.89,43.8c-5.91,0-10.16-.79-14.4-4.8-5.01-5.05-6.66-8.77-6.73-15.27.12-6.56.99-10.78,5.43-15.49C11.76,4.09,17.47,1.8,23.27,1.8c2.97,0,5.91.59,8.72,1.76,4.48,1.83,9.84,6.5,11.07,12.44,1.66,8.07.65,14.76-3.08,20.44-4.02,4.61-8.17,6.86-13.42,7.3-1.21.03-2.46.06-3.67.06Z"/>
    <path class="cls-1" d="m23.27,3.3h0c2.77,0,5.51.55,8.16,1.65,4.11,1.68,9.05,5.95,10.16,11.36,1.57,7.62.65,13.92-2.81,19.23-3.7,4.21-7.5,6.29-12.27,6.7-1.37.04-2.51.06-3.63.06-5.52,0-9.47-.71-13.33-4.36-4.74-4.79-6.22-8.11-6.29-14.19.11-6.3.9-10.09,4.98-14.45,4.29-3.88,9.62-6.01,15.03-6.01m0-3c-6.26,0-12.31,2.47-17.13,6.87C1.33,12.25.39,16.8.26,23.75c.08,7.2,2.13,11.24,7.2,16.34,4.75,4.5,9.63,5.21,15.43,5.21,1.22,0,2.49-.03,3.8-.07,6.09-.51,10.55-3.33,14.5-7.88,4.43-6.69,4.91-14.06,3.35-21.65-1.27-6.18-6.66-11.36-11.96-13.53-3.07-1.27-6.21-1.87-9.3-1.87h0Z"/>
  </g>
  <path class="cls-4" d="m38.6,25.16c-.5-.5-.87-.49-1.56-.49h-18.74c-1.4,0-2.84,0-4.26,0-.72,0-1.48.08-2.19,0-.5-.05-.74-.6-.73-1.08,0-.46,0-.92,0-1.38,0-.87.02-1.75.02-2.62v-4.89c0-.39-.2-.77-.52-1-.68-.49-1.61-.24-1.96.48-.29.59-.42,1.33-.41,1.99,0,.75.01,1.48.02,2.2,0,.81,0,1.6,0,2.39,0,.85.02,1.68.02,2.51.02,2.91.03,5.81.06,8.72h2.93c.33-1.33.65-2.61.98-3.9h22.44l.98,3.9h2.93c.04-2.28.04-4.55,0-6.83Z"/>
  <path class="cls-2" d="m12.82,21.41c-.28.47-.43,1.22.03,1.66.27.26,2.35.13,2.9.13h7.49c1.01,0,10.38,0,13.57,0,.58,0,1.05-.47,1.05-1.06v-1.93c0-.55-.34-1.06-.86-1.25-3.59-1.32-6.77-1.83-10.71-1.79-.67.02-2.2-.02-2.85,0-1.06.03-2.51.09-3.29.05-1.11-.06-.8.73-.88,1.32-.29,1.93-1.38,2.47-2.08,2.81-.58.28-3.59.07-4.36.06Z"/>
  <circle class="cls-2" cx="15.49" cy="17.95" r="2.47"/>
</svg>