<?xml version="1.0" encoding="UTF-8"?>
<svg width="100pt" height="100pt" version="1.1" viewBox="0 0 100 100" xmlns="http://www.w3.org/2000/svg">
 <g fill="#455d40">
  <path d="m52.656 33.094h-9.75v15.25h9.75c2.4688 0 4.4062-0.625 5.75-1.875 1.375-1.25 2.0625-3.2188 2.0625-5.9062s-0.6875-4.625-2.0625-5.75-3.2812-1.7188-5.75-1.7188z"/>
  <path d="m11.938 11.938v76.125h76.125v-76.125zm54.719 41.531c-3.0312 2.5312-7.3438 3.7812-13 3.7812h-10.781v18.625h-10.75v-51.75h22.219c5.125 0 9.2188 1.3438 12.25 4 3.0625 2.6562 4.5625 6.8125 4.5625 12.406 0.0625 6.0938-1.4688 10.406-4.5 12.938z"/>
 </g>
</svg>
