<?xml version="1.0" encoding="UTF-8"?>
<svg id="Layer_1" data-name="Layer 1" xmlns="http://www.w3.org/2000/svg" viewBox="0 0 100 100">
  <defs>
    <style>
      .cls-1 {
        stroke: #d5f298;
        stroke-miterlimit: 10;
        stroke-width: 2px;
      }

      .cls-1, .cls-2 {
        fill: none;
      }

      .cls-2 {
        stroke: #9ac184;
        stroke-width: 4px;
      }

      .cls-3 {
        fill: #475945;
      }
    </style>
  </defs>
  <g>
    <circle class="cls-3" cx="50" cy="50" r="46.37"/>
    <circle class="cls-2" cx="50" cy="50" r="46.37"/>
  </g>
  <path class="cls-1" d="m19.25,44.28l-1.14-1.93c-.67-1.13-.32-2.62.77-3.33l29.9-18.87c.73-.47,1.66-.47,2.41-.02l29.88,17.88c1.12.67,1.5,2.15.84,3.3l-1.1,1.95c-.64,1.15-2.09,1.55-3.2.87l-26.33-15.75c-.75-.44-1.68-.44-2.41.02l-26.4,16.68c-1.1.69-2.54.33-3.22-.8Z"/>
  <path class="cls-1" d="m58.65,73.02h14.7c1.05,0,1.91-.89,1.91-1.95v-23.49c0-.69-.37-1.35-.95-1.69l-23.32-13.95c-.6-.35-1.35-.35-1.96.02l-23.39,14.77c-.56.35-.9,1-.9,1.66v22.67c0,1.09.86,1.95,1.91,1.95h14.66c1.05,0,1.91-.89,1.91-1.95v-15.99c0-1.09.86-1.95,1.91-1.95h9.8c1.05,0,1.91.89,1.91,1.97l-.09,15.97c0,1.09.84,1.97,1.91,1.97l-.04-.02Z"/>
</svg>