<?xml version="1.0" encoding="UTF-8"?>
<svg id="Layer_1" data-name="Layer 1" xmlns="http://www.w3.org/2000/svg" viewBox="0 0 45 44">
  <defs>
    <style>
      .cls-1 {
        fill: #fff;
      }

      .cls-2 {
        fill: #5d7d70;
      }

      .cls-3 {
        fill: #3e564c;
      }
    </style>
  </defs>
  <g>
    <path class="cls-2" d="m22.45,42.5c-11.73,0-20.31-8.33-20.4-19.8C1.95,11.98,8.45,3.81,18.6,1.87c1.33-.25,2.68-.37,4-.37,11.41,0,20.36,9.05,20.36,20.6s-8.62,20.4-20.51,20.4Z"/>
    <path class="cls-3" d="m22.6,3c10.57,0,18.86,8.39,18.86,19.1s-7.99,18.9-19.01,18.9S3.63,33.3,3.55,22.69c-.09-9.96,5.93-17.55,15.32-19.34,1.24-.23,2.5-.35,3.73-.35m0-3C21.2,0,19.77.13,18.32.4,7.47,2.47.44,11.25.55,22.72c.1,12.29,9.4,21.28,21.9,21.28s22.01-9.2,22.01-21.9S34.6,0,22.6,0h0Z"/>
  </g>
  <g>
    <path class="cls-1" d="m15.08,14.49c.93,1.86,2.17,2.07,10.23,2.07,4.96,0,9.3.31,9.71.62.31.31-.83,2.89-2.58,5.68q-3.1,5.06-8.68,5.06h-5.05c-.32,0-.61-.19-.75-.48l-2.45-5.44c-1.96-4.3-2.23-7.16-5.56-7.22-.82.16-.82-.28-.93-1.81-.04-.62.36-.58,1.3-.53,2.58.12,3.93.62,4.75,2.07Z"/>
    <path class="cls-1" d="m20.34,30.83c.83,2.17-1.34,4.34-2.89,2.79-1.34-1.34-.52-4.44,1.14-4.44.62,0,1.34.72,1.76,1.65Z"/>
    <path class="cls-1" d="m31.3,30.61c.83,2.17-1.34,4.34-2.89,2.79-1.34-1.34-.52-4.44,1.14-4.44.62,0,1.34.72,1.76,1.65Z"/>
    <path class="cls-2" d="m17.28,19.75c.06,1.02,1.85,4.8,2.81,5.55.44.35,4.79.52,6.78.07.99-.23,2.28-1.96,2.75-2.7,2.96-3.8,1.57-3.17-5.39-3.53s-6.94.2-6.94.61Z"/>
  </g>
</svg>