<?xml version="1.0" encoding="UTF-8"?>
<svg id="Layer_1" data-name="Layer 1" xmlns="http://www.w3.org/2000/svg" viewBox="0 0 45 45">
  <defs>
    <style>
      .cls-1 {
        fill: #fff;
      }

      .cls-2 {
        fill: #896d72;
      }

      .cls-3 {
        fill: #72565a;
      }
    </style>
  </defs>
  <g>
    <path class="cls-2" d="m22.5,42.9c-12.11,0-20.31-8.2-20.4-20.41C2.1,13.02,8.56,4.59,17.45,2.46c1.17-.3,2.63-.45,4.25-.45,3.74,0,7.71.8,10.12,2.03,10.72,5.41,12.5,15.81,10.77,23.06-1.74,7.29-8.04,15.8-20.09,15.8Z"/>
    <path class="cls-3" d="m21.7,3.5c3.47,0,7.26.75,9.45,1.87,9.93,5.01,11.58,14.65,9.98,21.37-1.61,6.76-7.45,14.65-18.63,14.65S3.69,33.8,3.6,22.5C3.6,13.7,9.57,5.89,17.84,3.91c1.03-.26,2.36-.4,3.85-.4m0-3c-1.69,0-3.28.16-4.6.5C7.5,3.3.6,12.4.6,22.5c.1,12.9,9,21.9,21.9,21.9,23.3,0,30.8-31.2,10-41.7-2.7-1.39-6.99-2.2-10.8-2.2h0Z"/>
  </g>
  <path class="cls-1" d="m20.9,12.5c1.1,1.1,1.9.9,4.6-.6,3.1-1.8,3.6-1.9,6.8-.5,3.9,1.6,5.7,4.1,5.7,8.1,0,2-1.9,4.7-7.2,10.1-3.9,4.1-7.7,7.4-8.3,7.4-2,0-14.3-13.5-15.1-16.4-1.8-7.3,8-13.3,13.5-8.1Z"/>
  <path class="cls-2" d="m12.6,15.6c-.9.8-1.6,2.4-1.6,3.5,0,2.2,9.6,12.9,11.5,12.9,2.3,0,11.5-10.7,11.5-13.5,0-3.3-3.7-5.2-7-3.5l-2.2,1.2,2.1,2.2c1.2,1.2,2.1,2.8,2.1,3.4,0,1.9-2.5,1.4-4.5-.8-1.7-1.9-1.9-1.9-3.7-.3-1.4,1.2-2.1,1.4-3,.5s-.7-1.6.6-3.1c1.7-1.9,1.7-2-.3-3-2.7-1.5-3.7-1.4-5.5.5Z"/>
</svg>