<?xml version="1.0" encoding="UTF-8"?>
<svg id="Layer_1" data-name="Layer 1" xmlns="http://www.w3.org/2000/svg" xmlns:xlink="http://www.w3.org/1999/xlink" viewBox="0 0 90 90">
  <defs>
    <style>
      .cls-1, .cls-2 {
        fill: #f2a634;
      }

      .cls-2 {
        filter: url(#outer-glow-1);
        opacity: .8;
      }
    </style>
    <filter id="outer-glow-1" filterUnits="userSpaceOnUse">
      <feOffset dx="0" dy="0"/>
      <feGaussianBlur result="blur" stdDeviation="5"/>
      <feFlood flood-color="#b27200" flood-opacity=".75"/>
      <feComposite in2="blur" operator="in"/>
      <feComposite in="SourceGraphic"/>
    </filter>
  </defs>
  <path class="cls-2" d="m45,21h0c13.25,0,24,10.75,24,24h0c0,13.25-10.75,24-24,24h0c-13.25,0-24-10.75-24-24h0c0-13.25,10.75-24,24-24Z"/>
  <path class="cls-1" d="m45.4,0h-1.67l.05,2c.38,0,.77-.02,1.15-.02h.79V0h-.32Zm-4,.11h-.05c-.57.04-1.14.09-1.7.16h0s-.1,0-.15.02l.23,1.99c.63-.07,1.27-.13,1.9-.18l-.14-1.99h-.08Zm-3.97.47c-.09.02-.19.03-.28.05h-.34c-.33.06-.67.13-1,.2l.41,1.96c.62-.13,1.25-.25,1.88-.35l-.32-1.97h0l-.35.11Zm-3.91.82c-.43.11-.86.23-1.28.35h-.04c-.18.05-.36.11-.54.16l.59,1.91c.61-.19,1.22-.36,1.84-.52l-.5-1.94h0l-.07.04Zm-3.82,1.17c-.63.22-1.25.46-1.87.72l.76,1.85c.59-.24,1.19-.47,1.78-.68l-.67-1.88h0Zm-3.7,1.51c-.17.08-.33.16-.5.23h-.05s-.05.03-.08.04h-.02c-.36.17-.71.35-1.06.53l.92,1.78c.56-.29,1.14-.58,1.71-.84l-.84-1.81h0l-.08.07Zm-3.55,1.84c-.31.18-.62.36-.92.55h-.04s-.03.02-.05.03h-.02c-.21.13-.42.26-.62.39h-.01l1.08,1.69c.53-.34,1.08-.67,1.63-.99l-1-1.73h0l-.05.06Zm-3.37,2.15c-.27.19-.54.38-.81.58h-.01c-.23.17-.45.34-.67.51l1.22,1.58c.5-.39,1.02-.77,1.54-1.13l-1.15-1.64h0l-.12.1Zm-3.17,2.44c-.27.23-.54.47-.81.7h0l-.02.02h0l-.02.02h0l-.02.02h0l-.02.02h-.01s-.01.02-.02.03h0l-.02.02h0l-.02.02h0l-.02.02h0l-.02.02h0s-.01,0-.02.01h-.01s0,.01-.01.02h-.01s-.01.02-.02.03h0l-.02.02h0l-.02.02h0l-.02.02h0l-.02.02h0c-.09.08-.17.16-.26.24l1.36,1.47c.47-.43.95-.86,1.43-1.27l-1.29-1.53h0l-.09.06Zm-2.94,2.71c-.1.1-.2.21-.31.31h0l-.02.02h0s-.01.02-.02.02h0l-.02.02h0s-.01.02-.02.02h0l-.02.02h0l-.02.02h0l-.02.02h0l-.02.02h0l-.02.02h0l-.02.02h0l-.02.02h0l-.02.02h0l-.02.02h0l-.02.02h0l-.02.02h0l-.02.02h0l-.02.02h0l-.02.02h0l-.02.02h0l-.02.02h0l-.02.02h0l-.02.02h0l-.02.02h0l-.02.02h0l-.02.02h0l-.02.02h0l-.02.02h0l-.02.02h0l-.02.02h0l-.02.02h0l-.02.02h0l-.02.02h0l-.02.02h0s-.01.02-.02.02h0c-.11.12-.23.24-.34.37l1.48,1.34c.43-.47.87-.94,1.32-1.39l-1.42-1.41h0l-.05.1Zm-2.69,2.96c-.37.45-.74.9-1.09,1.37h0v.02h0s-.07.09-.11.14l1.59,1.21c.38-.51.78-1.01,1.19-1.5l-1.54-1.28h0l-.04.04Zm-2.41,3.19c-.25.37-.5.73-.74,1.11h0s-.01.02-.02.03h0v.02h0s-.02.04-.03.05h0v.02h0v.02h0v.02h0v.02h0c-.06.09-.12.19-.18.28l1.7,1.06c.34-.54.69-1.07,1.05-1.6l-1.65-1.14h0l-.13.11Zm-2.12,3.39c-.21.37-.41.75-.61,1.12h0v.02h0v.02h0v.02h0v.02h0v.02h0v.02h0v.02h0c-.07.15-.14.28-.21.42l1.78.91c.29-.56.59-1.13.9-1.68l-1.74-.98h0l-.12.07Zm-1.81,3.57s-.04.09-.06.14h0v.02h0v.02h0s0,.04-.02.06h0v.02h0c-.05.13-.11.26-.16.38h0v.02h0v.02h0s-.02.04-.03.06h0c-.13.32-.26.62-.38.93l1.86.74c.23-.59.49-1.18.75-1.76l-1.82-.82h0l-.14.17Zm-1.48,3.71s-.03.08-.04.13h0v.02h0c-.14.43-.28.85-.41,1.28h0v.02h0v.03h0v.02h0v.02h0c-.04.12-.07.24-.11.36l1.92.57c.18-.61.38-1.22.59-1.82l-1.89-.66h0l-.06.03Zm-1.14,3.83c-.03.11-.05.22-.08.33h0v.02h0c-.11.45-.2.9-.3,1.34h0v.02h0v.02h0s0,.06-.02.09l1.96.39c.13-.62.27-1.25.42-1.86l-1.94-.48h0l-.04.13Zm-.79,3.92c-.1.66-.19,1.32-.26,1.98l1.99.22c.07-.63.15-1.27.25-1.89l-1.98-.31h0Zm-.43,3.98c-.04.66-.07,1.33-.08,2l2,.04c0-.63.04-1.28.08-1.91l-2-.13h-.01.01Zm1.91,3.98l-2,.02c0,.58.02,1.15.05,1.72H.06v.02H.06c0,.07,0,.14.01.22l2-.11c-.03-.63-.05-1.27-.06-1.91h0v.04Zm.2,3.81l-1.99.2c.05.49.1.98.17,1.46H.39v.02H.39v.02H.39v.02H.39c.02.14.04.28.06.43l1.98-.29c-.09-.63-.17-1.26-.23-1.9h0v.04Zm.55,3.78l-1.96.38c.12.63.25,1.25.4,1.86h0v.02h0v.03l1.95-.46c-.15-.62-.28-1.24-.4-1.87h0v.04Zm.89,3.71l-1.92.55c.06.21.12.41.18.62h0v.02h0v.02h0v.02h0s.02.05.02.08h0v.02h0v.02h0c.11.38.23.74.35,1.1l1.9-.64c-.2-.6-.39-1.21-.57-1.82h.04Zm1.22,3.62l-1.86.72c.24.62.5,1.24.77,1.85l1.83-.81c-.26-.58-.5-1.17-.73-1.76h0Zm1.54,3.49l-1.79.89c.3.6.61,1.19.93,1.77l1.75-.97c-.31-.56-.61-1.12-.89-1.69h0Zm1.85,3.34l-1.71,1.04c.06.1.12.19.18.29h0v.02h0v.02h0c.2.32.41.64.62.96h0c.04.06.07.11.11.17h0c.04.06.08.12.13.19l1.66-1.12c-.36-.53-.7-1.07-1.03-1.61h0l.04.04Zm2.14,3.17l-1.61,1.19c.04.05.08.1.11.15h0v.02h0s.01.01.02.02h0s.01.02.02.02h0v.02h0v.02h0s.06.08.08.12h0v.02h0v.02h0s.05.08.07.11h0v.02h0v.02h0v.02h0s.02.04.04.06h0s.02.04.03.05h0s.02.04.03.05h0v.02h0c.07.09.13.17.2.25l1.55-1.26c-.4-.49-.8-1-1.17-1.51h0l.63.57Zm2.41,2.96l-1.49,1.33c.44.5.9.99,1.36,1.46l1.43-1.39c-.44-.45-.88-.93-1.3-1.4h0Zm2.66,2.74l-1.37,1.46c.22.2.43.4.65.6h0s.02.01.02.02h0s.01.01.02.02h0s.01.01.02.02h0s.01.01.02.01h.02s0,.01.01.02h.01s0,.01.01.02h0s.01,0,.02.01h0s.01.01.02.02h0s.01.01.02.02h0s.01.01.02.02h0s.01.01.02.02h0s.01.01.02.02h0s.01.01.02.02h0s.03.03.05.04h0s.01.01.02.02h0s.01.01.02.02h0s.01.01.02.02h0s.01.01.02.02h0s.01.01.02.02h0s.03.03.05.04h0s.01.01.02.02h0s.01.01.02.02h0s.01.01.02.02h0s.01.01.02.02h0s.01.01.02.02h0s.01.01.02.02h0s.01.01.02.02h0s.01,0,.02.01h0s.01,0,.02.01h.01s0,.01.01.01h.01s1.3-1.51,1.3-1.51c-.48-.41-.96-.84-1.42-1.28h0l.16.14Zm2.9,2.49l-1.24,1.57s.1.08.16.12h.02c.45.35.92.7,1.38,1.03l1.17-1.63c-.52-.37-1.03-.76-1.53-1.15h0l.04.06Zm3.11,2.23l-1.09,1.68c.13.08.26.17.39.25h.03s.09.06.13.09h0c.17.11.34.21.52.32h.07s.03.02.04.03h.05c.09.05.18.11.27.16l1.02-1.72c-.55-.32-1.09-.66-1.62-1.01h0l.19.2Zm3.29,1.94l-.94,1.77c.36.19.71.37,1.07.55h.16c.15.07.3.15.45.22l.86-1.81c-.57-.27-1.15-.56-1.71-.86h0l.11.13Zm3.45,1.64l-.78,1.84c.19.08.38.16.57.23h.03s.04.02.06.02h.05s.07.03.1.04h.14c.22.08.44.17.66.25l.69-1.88c-.59-.22-1.19-.45-1.78-.7h0l.26.2Zm3.58,1.32l-.61,1.91c.19.06.37.12.56.17h.02s.04.01.06.02h.02c.39.12.78.23,1.17.33l.52-1.93c-.61-.16-1.23-.35-1.83-.54h0l.09.04Zm3.69.99l-.43,1.95c.4.09.79.17,1.19.25h.11c.21.04.43.08.64.12l.34-1.97c-.62-.11-1.25-.23-1.87-.37h0l.02.02Zm3.76.65l-.25,1.98c.66.08,1.32.15,1.99.21l.16-1.99c-.63-.05-1.27-.12-1.9-.2h0Zm3.81.31l-.07,2c.32.01.64.02.96.02h.9v-2h-.36c-.52,0-1.05,0-1.57-.03h.14Zm5.76-.11c-.63.05-1.27.09-1.91.11l.07,2c.61-.02,1.21-.05,1.82-.1h.13l-.16-1.99h0l.05-.02Zm3.79-.48c-.62.11-1.26.2-1.89.28l.25,1.98c.55-.07,1.1-.15,1.64-.24h.11c.06,0,.12-.02.18-.03l-.34-1.97h0l.05-.02Zm3.73-.82c-.61.16-1.24.32-1.86.45l.43,1.95h.02c.25-.06.51-.11.76-.17h.12c.31-.08.61-.15.92-.24l-.52-1.93h0l.13-.06Zm3.64-1.15c-.6.22-1.2.43-1.81.62l.6,1.91c.1-.03.19-.06.29-.09h.03s.04-.01.07-.02h0c.41-.13.81-.27,1.21-.42h.02c.06-.02.12-.04.18-.06l-.69-1.88h0l.1-.06Zm3.52-1.48c-.57.27-1.16.53-1.74.78l.77,1.84c.62-.26,1.22-.53,1.83-.81l-.85-1.81h-.01Zm3.38-1.79c-.55.32-1.11.63-1.67.93l.94,1.77c.11-.06.22-.12.33-.18h0s.06-.03.1-.05h.01s.03-.02.04-.02h.08c.34-.19.68-.38,1.02-.58l-1.01-1.72h0l.16-.15Zm3.2-2.08c-.52.37-1.05.73-1.58,1.08l1.09,1.68c.19-.12.37-.25.56-.37h.05s.07-.05.1-.07h.04s.02-.02.03-.02h.05s.04-.03.05-.04h.05s.04-.03.07-.05h.07s.03-.02.04-.03h.02l-1.16-1.63h0l.52-.55Zm3.01-2.36c-.48.41-.98.82-1.48,1.21l1.23,1.57c.5-.39.99-.79,1.47-1.2h0l.03-.03-1.3-1.52h0l.05-.03Zm2.79-2.61c-.44.45-.9.9-1.36,1.34l1.37,1.46h0l.02-.02h0l.02-.02h0l.02-.02h0s.01,0,.02-.01h.01s0-.01.01-.02h.01s0-.01.01-.02h.01s0-.01.01-.02h.01s0-.01.01-.02h.01s0-.01.01-.02h.01s0-.01.01-.02h.01s0-.01.01-.02h.01s.01-.01.02-.02h0l.02-.02h0s.01,0,.02-.01h.01s.01-.02.02-.03h0l.02-.02h0l.02-.02h0l.02-.02h0l.02-.02h0l.02-.02h0l.84-.84h0l-1.43-1.4h0l.16-.17Zm2.55-2.85c-.4.49-.82.98-1.24,1.45l1.49,1.33h0s.01-.02.02-.02h0l.02-.02h0s.01-.02.02-.02h0s.01-.02.02-.02h0l.02-.02h0l.02-.02h0l.02-.02h0l.02-.02h0s.01-.02.02-.02h0l.02-.02h0l.02-.02h0l.02-.02h0l.02-.02h0l.02-.02h0l.02-.02h0l.02-.02h0s.01-.02.02-.02h0l.02-.02h0l.02-.02h0l.02-.02h0l.02-.02h0l.02-.02h0s.01-.02.02-.02h0l.02-.02h0c.27-.32.54-.64.8-.96l-1.55-1.26h0l.02-.08Zm2.28-3.06c-.36.52-.73,1.05-1.11,1.56l1.6,1.19c.07-.1.15-.2.22-.3h0s.05-.07.07-.1h0v-.02h0v-.02h0v-.02h0v-.02h0v-.02h0s.03-.04.04-.05h0v-.02h0v-.02h0v-.02h0v-.02h0c.18-.25.35-.5.52-.75l-1.66-1.12h0l.32-.25Zm2-3.25c-.31.55-.63,1.11-.96,1.65l1.7,1.05c.14-.23.28-.45.41-.68h0v-.02h0v-.02h0s.01-.03.02-.04h0v-.02h0v-.02h0v-.02h0c.16-.28.31-.55.47-.83l-1.75-.97h0l.11-.08Zm1.7-3.42c-.26.58-.53,1.16-.81,1.73l1.79.89h0c.29-.59.56-1.17.82-1.77l-1.83-.81h0l.03-.04Zm1.39-3.56c-.2.6-.42,1.2-.65,1.79l1.86.73c.13-.32.25-.65.37-.98h0v-.02h0c.1-.28.19-.55.28-.82l-1.89-.64h0l.03-.06Zm1.06-3.67c-.15.62-.31,1.24-.49,1.85l1.92.55h0v-.02h0s.01-.05.02-.08h0v-.02h0v-.02h0v-.03h0s.02-.07.03-.1h0v-.02h0v-.02h0v-.02h0s.02-.07.03-.1h0v-.02h0v-.02h0v-.02h0s.02-.07.03-.1h0v-.02h0v-.03h0v-.02h0s.02-.07.03-.1h0v-.02h0v-.02h0v-.03h0s.02-.09.04-.13h0c.01-.06.03-.11.04-.17h0v-.03h0c.06-.25.13-.5.19-.75l-1.94-.47h0l.1-.02Zm.72-3.75c-.09.63-.2,1.26-.32,1.88l1.96.38c.07-.34.13-.68.18-1.02h0v-.02h0v-.02h0v-.02h0v-.05h0v-.02h0v-.02h0v-.02h0v-.05h0v-.02h0v-.02h0v-.03h0v-.03h0v-.02h0v-.02h0v-.02h0v-.02h0v-.03h0v-.02h0v-.02h0v-.02h0s0-.04.01-.07h0v-.02h0v-.02h0s.01-.08.02-.12h0v-.05l-1.98-.29h0l.13-.18Zm.38-3.8c-.03.63-.08,1.27-.15,1.9l1.99.2c.02-.24.05-.48.07-.73h0v-.02h0v-.02h0v-.02h0v-.02h0v-.02h0c.02-.3.04-.6.06-.9h0v-.02h0v-.06h0v-.06l-2-.11h0l.03-.12Zm2.06-3.89l-2,.03v1.94l2,.02v-.13h0v-.26h0v-.02h0v-.03h0v-.79h0v-.02h0v-.02h0v-.03h0v-.02h0v-.02h0v-.02h0v-.03h0v-.02h0v-.02h0v-.05h0v-.49h0v-.02Zm-.25-3.99l-1.99.21c.07.63.12,1.27.16,1.9l2-.12c0-.06,0-.11-.01-.17h0v-.02h0c-.04-.59-.09-1.17-.15-1.75h0v-.05Zm-.6-3.95l-1.96.39c.12.62.24,1.25.33,1.88l1.98-.3c-.03-.19-.06-.37-.09-.56h0v-.02h0v-.02h0s-.01-.06-.02-.09h0v-.02h0v-.02h0s0-.06-.01-.08h0v-.02h0v-.02h0c-.06-.37-.13-.74-.21-1.1h0l-.02-.02Zm-.96-3.88l-1.92.57c.18.61.35,1.23.5,1.84l1.94-.48c-.02-.07-.04-.14-.05-.21h0v-.02h0v-.02h0s0-.04-.01-.06h0v-.02h0v-.03h0c-.13-.5-.26-.99-.41-1.48h0l-.05-.09Zm-1.31-3.78l-1.86.74c.23.59.46,1.19.66,1.79l1.89-.65c-.22-.63-.45-1.26-.7-1.87h0Zm-1.64-3.65l-1.78.9c.29.57.56,1.15.82,1.72l1.82-.82c-.21-.48-.44-.95-.67-1.41h0v-.02h0c-.05-.11-.1-.21-.15-.31h0l-.04-.06Zm-1.96-3.48l-1.7,1.06c.34.54.66,1.09.97,1.64l1.74-.98c-.33-.58-.67-1.16-1.02-1.72h0Zm-2.27-3.3l-1.6,1.21c.38.51.76,1.03,1.12,1.55l1.65-1.13c-.27-.4-.56-.79-.84-1.18h0v-.02h0s-.04-.06-.05-.08h0v-.02h0c-.05-.07-.11-.14-.16-.21h0l-.12-.12Zm-2.55-3.08l-1.48,1.34c.43.47.85.96,1.25,1.45l1.54-1.27c-.42-.51-.86-1.02-1.31-1.51h0Zm-2.81-2.84l-1.36,1.47c.47.43.93.88,1.37,1.33l1.42-1.41c-.47-.47-.95-.94-1.44-1.39h.01Zm-3.05-2.58l-1.22,1.58c.5.39,1,.79,1.49,1.2l1.29-1.53c-.51-.43-1.03-.85-1.55-1.26h0Zm-3.27-2.3l-1.08,1.68c.53.34,1.07.7,1.59,1.07l1.15-1.63c-.22-.15-.43-.3-.65-.45h-.03c-.13-.09-.26-.17-.39-.26h0s-.04-.02-.06-.04h-.01c-.13-.09-.26-.17-.39-.26h0l-.13-.11Zm-3.46-2l-.92,1.77c.56.29,1.13.6,1.67.92l1-1.73c-.51-.3-1.03-.58-1.56-.86h-.04l-.12-.06h0l-.03-.04Zm-3.63-1.69l-.76,1.85c.59.24,1.17.5,1.75.77l.84-1.81c-.16-.08-.33-.15-.49-.22h-.06s-.03,0-.05-.02h-.02s0,0,0,0c0,0,0,0,0,0h0c-.34-.15-.68-.3-1.02-.44h-.03s-.02,0-.03,0h0l-.11-.12Zm-3.76-1.35l-.59,1.91c.61.19,1.21.39,1.81.6l.68-1.88s-.11-.04-.17-.06h-.02c-.38-.13-.76-.26-1.15-.39h-.03s-.02,0-.03,0h0c-.12-.04-.25-.08-.37-.12h0l-.13-.05Zm-3.87-1.01l-.42,1.96c.62.13,1.24.28,1.86.44l.5-1.94c-.64-.17-1.29-.32-1.95-.46h0Zm-3.95-.65l-.24,1.99c.63.07,1.27.17,1.89.27l.33-1.97c-.08,0-.17-.03-.25-.04h-.13c-.51-.08-1.03-.15-1.55-.21h0l-.05-.04ZM46.69-.01l-.06,2c.63.02,1.28.05,1.91.1l.15-1.99h-.46c-.47-.03-.93-.05-1.4-.06h0l-.13-.05Z"/>
</svg>