<?xml version="1.0" encoding="UTF-8"?>
<svg id="Layer_1" data-name="Layer 1" xmlns="http://www.w3.org/2000/svg" viewBox="0 0 32 32">
  <defs>
    <style>
      .cls-1 {
        fill: #475945;
      }
    </style>
  </defs>
  <path class="cls-1" d="m1.69,14.88l-.53-.87c-.31-.51-.15-1.18.36-1.5L15.43,4c.34-.21.77-.21,1.12-.01l13.9,8.06c.52.3.7.97.39,1.49l-.51.88c-.3.52-.97.7-1.49.39l-12.25-7.1c-.35-.2-.78-.2-1.12.01L3.19,15.24c-.51.31-1.18.15-1.5-.36Z"/>
  <path class="cls-1" d="m20.02,27.84h6.84c.49,0,.89-.4.89-.88v-10.59c0-.31-.17-.61-.44-.76l-10.85-6.29c-.28-.16-.63-.16-.91.01l-10.88,6.66c-.26.16-.42.45-.42.75v10.22c0,.49.4.88.89.88h6.82c.49,0,.89-.4.89-.88v-7.21c0-.49.4-.88.89-.88h4.56c.49,0,.89.4.89.89l-.04,7.2c0,.49.39.89.89.89Z"/>
</svg>