<?xml version="1.0" encoding="UTF-8"?>
<svg id="Layer_1" data-name="Layer 1" xmlns="http://www.w3.org/2000/svg" viewBox="0 0 32 32">
  <defs>
    <style>
      .cls-1 {
        fill: #fff;
      }

      .cls-2 {
        fill: #475945;
      }
    </style>
  </defs>
  <rect class="cls-2" x="0" y="0" width="32" height="32" rx="16" ry="16"/>
  <path class="cls-1" d="m3.31,14.31l-.47-.77c-.28-.46-.14-1.05.32-1.33l12.34-7.57c.3-.19.68-.19.99-.01l12.33,7.17c.46.27.62.86.35,1.32l-.46.78c-.27.46-.86.62-1.32.35l-10.87-6.32c-.31-.18-.69-.17-.99.01l-10.9,6.68c-.46.28-1.05.14-1.33-.32Z"/>
  <path class="cls-1" d="m19.57,25.83h6.07c.43,0,.79-.35.79-.79v-9.41c0-.28-.15-.54-.39-.68l-9.63-5.59c-.25-.15-.56-.14-.81,0l-9.65,5.92c-.23.14-.37.4-.37.67v9.09c0,.43.35.79.79.79h6.05c.43,0,.79-.35.79-.79v-6.41c0-.43.35-.79.79-.79h4.05c.44,0,.79.35.79.79l-.03,6.4c0,.44.35.79.79.79Z"/>
</svg>