<?xml version="1.0" encoding="UTF-8"?>
<svg id="Layer_1" data-name="Layer 1" xmlns="http://www.w3.org/2000/svg" viewBox="0 0 45 45">
  <defs>
    <style>
      .cls-1 {
        fill: #d5f298;
      }

      .cls-2 {
        fill: #64a064;
      }

      .cls-3 {
        fill: #475945;
      }
    </style>
  </defs>
  <g>
    <path class="cls-3" d="m5.05,2.56h34.91c1.35,0,2.45,1.1,2.45,2.45v34.91c0,1.35-1.1,2.45-2.45,2.45H5.05c-1.35,0-2.45-1.1-2.45-2.45V5.01c0-1.35,1.1-2.45,2.45-2.45Z"/>
    <path class="cls-2" d="m39.95,4.06c.52,0,.95.44.95.95v34.91c0,.52-.44.95-.95.95H5.05c-.52,0-.95-.44-.95-.95V5.01c0-.52.44-.95.95-.95h34.91m0-3H5.05c-2.17,0-3.95,1.78-3.95,3.95v34.91c0,2.17,1.78,3.95,3.95,3.95h34.91c2.17,0,3.95-1.78,3.95-3.95V5.01c0-2.17-1.78-3.95-3.95-3.95h0Z"/>
  </g>
  <path class="cls-1" d="m6.18,21.33l-.6-1.02c-.35-.6-.17-1.39.41-1.77l15.87-10.02c.39-.25.88-.25,1.28-.01l15.85,9.49c.59.35.8,1.14.44,1.75l-.58,1.04c-.34.61-1.11.82-1.7.46l-13.97-8.36c-.4-.24-.89-.24-1.28.01l-14.01,8.85c-.58.36-1.35.18-1.71-.42Z"/>
  <path class="cls-1" d="m27.09,36.58h7.8c.56,0,1.02-.47,1.02-1.04v-12.46c0-.36-.19-.72-.5-.89l-12.38-7.4c-.32-.19-.72-.19-1.04.01l-12.41,7.84c-.3.19-.48.53-.48.88v12.03c0,.58.46,1.04,1.02,1.04h7.78c.56,0,1.02-.47,1.02-1.04v-8.49c0-.58.46-1.04,1.02-1.04h5.2c.56,0,1.02.47,1.02,1.05l-.05,8.47c0,.58.44,1.05,1.02,1.05h-.02Z"/>
</svg>